HIERARCHY
ROOT joint_Root
{
	OFFSET 0.0 0.0 0.0
	CHANNELS 6 Xposition Yposition Zposition Zrotation Xrotation Yrotation 
	JOINT Hips
	{
		OFFSET -0.726466 93.3139 -2.00062
		CHANNELS 6 Xposition Yposition Zposition Zrotation Xrotation Yrotation 
		JOINT Spine
		{
			OFFSET 15.7357 0.0 0.0
			CHANNELS 6 Xposition Yposition Zposition Zrotation Xrotation Yrotation 
			JOINT Chest
			{
				OFFSET 8.98455 -0.406207 0.0
				CHANNELS 6 Xposition Yposition Zposition Zrotation Xrotation Yrotation 
				JOINT Neck
				{
					OFFSET 16.3773 0.0 0.0
					CHANNELS 6 Xposition Yposition Zposition Zrotation Xrotation Yrotation 
					JOINT Head
					{
						OFFSET 6.45672 0.0 0.0
						CHANNELS 6 Xposition Yposition Zposition Zrotation Xrotation Yrotation 
						End Site
						{
							OFFSET 0.0 0.0 0.0
						}
					}
				}
				JOINT Shoulder_L
				{
					OFFSET 12.9942 -0.242716 4.98039
					CHANNELS 6 Xposition Yposition Zposition Zrotation Xrotation Yrotation 
					JOINT UpperArm_L
					{
						OFFSET 5.34809 0.0 0.0
						CHANNELS 6 Xposition Yposition Zposition Zrotation Xrotation Yrotation 
						JOINT LowerArm_L
						{
							OFFSET 24.3286 1.87007e-05 0.0
							CHANNELS 6 Xposition Yposition Zposition Zrotation Xrotation Yrotation 
							JOINT Hand_L
							{
								OFFSET 22.2916 0.0 0.0
								CHANNELS 6 Xposition Yposition Zposition Zrotation Xrotation Yrotation 
								End Site
								{
									OFFSET 0.0 0.0 0.0
								}
							}
						}
					}
				}
				JOINT Shoulder_R
				{
					OFFSET 12.9945 -0.242716 -4.98039
					CHANNELS 6 Xposition Yposition Zposition Zrotation Xrotation Yrotation 
					JOINT UpperArm_R
					{
						OFFSET -5.34813 0.0 0.0
						CHANNELS 6 Xposition Yposition Zposition Zrotation Xrotation Yrotation 
						JOINT LowerArm_R
						{
							OFFSET -24.3289 0.000322201 0.0
							CHANNELS 6 Xposition Yposition Zposition Zrotation Xrotation Yrotation 
							JOINT Hand_R
							{
								OFFSET -22.2915 -0.000108084 0.0
								CHANNELS 6 Xposition Yposition Zposition Zrotation Xrotation Yrotation 
								End Site
								{
									OFFSET 0.0 0.0 0.0
								}
							}
						}
					}
				}
			}
		}
		JOINT UpperLeg_L
		{
			OFFSET -2.19248 -6.46944 0.0
			CHANNELS 6 Xposition Yposition Zposition Zrotation Xrotation Yrotation 
			JOINT LowerLeg_L
			{
				OFFSET 39.0811 0.0 -1.23785e-05
				CHANNELS 6 Xposition Yposition Zposition Zrotation Xrotation Yrotation 
				JOINT Foot_L
				{
					OFFSET 40.9854 0.0 -1.26872e-05
					CHANNELS 6 Xposition Yposition Zposition Zrotation Xrotation Yrotation 
					JOINT Toes_L
					{
						OFFSET 11.7543 0.0 0.0
						CHANNELS 6 Xposition Yposition Zposition Zrotation Xrotation Yrotation 
						End Site
						{
							OFFSET 0.0 0.0 0.0
						}
					}
				}
			}
		}
		JOINT UpperLeg_R
		{
			OFFSET -2.19251 6.46944 0.0
			CHANNELS 6 Xposition Yposition Zposition Zrotation Xrotation Yrotation 
			JOINT LowerLeg_R
			{
				OFFSET -39.0811 -0.00228153 -0.0401928
				CHANNELS 6 Xposition Yposition Zposition Zrotation Xrotation Yrotation 
				JOINT Foot_R
				{
					OFFSET -40.9854 0.0 0.0
					CHANNELS 6 Xposition Yposition Zposition Zrotation Xrotation Yrotation 
					JOINT Toes_R
					{
						OFFSET -11.7543 0.0 0.0
						CHANNELS 6 Xposition Yposition Zposition Zrotation Xrotation Yrotation 
						End Site
						{
							OFFSET 0.0 0.0 0.0
						}
					}
				}
			}
		}
	}
}
MOTION
Frames:	7
Frame Time:	0.0333333
0.000000 0.000000 0.000000 0.000000 0.000000 -0.000000 -1.111060 92.977100 -1.460720 89.111200 -2.353260 1.386070 15.735700 0.000005 -0.000001 95.337000 86.528100 -95.310300 8.984550 -0.406207 -0.000000 -0.852526 0.643710 0.058241 16.377300 -0.000001 -0.000001 1.973530 -2.841320 3.259380 6.456720 -0.000001 -0.000000 7.744760 -1.475410 -3.852750 12.994200 -0.242716 4.980390 -90.482900 1.495900 -72.107000 5.348090 -0.000007 -0.000001 -67.051700 38.244200 -12.545500 24.328600 0.000019 0.000005 4.716850 11.916900 -21.779400 22.291600 -0.000001 0.000005 1.203740 5.484730 -5.931760 12.994500 -0.242716 -4.980390 87.698100 7.357260 -72.572600 -5.348130 -0.000001 -0.000004 -65.602900 38.773600 -10.913400 -24.328900 0.000322 -0.000009 2.838390 8.503020 -18.543300 -22.291500 -0.000108 -0.000004 8.443450 5.385660 -2.476760 -2.192480 -6.469440 -0.000000 -176.760000 -9.638710 -3.430190 39.081100 -0.000007 -0.000012 -0.063175 0.202872 17.296800 40.985400 -0.000006 -0.000013 -0.400146 3.853350 -62.560800 11.754300 -0.000000 0.000003 -0.000001 -0.000009 -16.577800 -2.192510 6.469440 -0.000001 179.414000 11.666000 179.172000 -39.081100 -0.002282 -0.040193 -0.051408 0.214642 14.307000 -40.985400 0.000008 0.000006 1.084150 6.505620 -62.370500 -11.754300 -0.000006 -0.000006 -0.006820 -0.078109 -19.752700
0.000000 0.000000 0.000000 0.000000 0.000000 -0.000000 -1.117760 92.983600 -1.491550 89.129200 -2.331620 1.394500 15.735700 0.000005 -0.000001 95.570900 86.502300 -95.529000 8.984550 -0.406207 -0.000000 -0.804005 0.675815 0.088636 16.377300 -0.000001 -0.000001 1.806600 -2.889600 3.229450 6.456720 -0.000001 -0.000000 7.747130 -1.556110 -3.871900 12.994200 -0.242716 4.980390 -90.530200 1.633900 -72.018500 5.348090 -0.000007 -0.000001 -63.800300 38.228200 -14.850900 24.328600 0.000019 0.000005 6.342200 15.245200 -22.911400 22.291600 -0.000001 0.000005 -1.650240 5.490010 -6.131520 12.994500 -0.242716 -4.980390 87.730900 7.229510 -72.522700 -5.348130 -0.000001 -0.000004 -65.879700 38.627600 -10.785100 -24.328900 0.000322 -0.000009 2.851000 8.531180 -18.563300 -22.291500 -0.000108 -0.000004 8.411260 5.387490 -2.535310 -2.192480 -6.469440 -0.000000 -176.784000 -9.542230 -3.410890 39.081100 -0.000007 -0.000012 -0.062019 0.199962 17.231400 40.985400 -0.000006 -0.000013 -0.412995 3.795260 -62.510000 11.754300 -0.000000 0.000003 -0.000001 -0.000012 -16.578000 -2.192510 6.469440 -0.000001 179.398000 11.701700 179.173000 -39.081100 -0.002282 -0.040193 -0.051622 0.215867 14.282400 -40.985400 0.000008 0.000006 1.087420 6.515620 -62.339700 -11.754300 -0.000006 -0.000006 -0.006589 -0.076098 -19.670600
0.000000 0.000000 0.000000 0.000000 0.000000 -0.000000 -1.151800 92.986500 -1.548270 89.147800 -2.295350 1.362960 15.735700 0.000005 -0.000001 96.190600 86.495800 -96.133800 8.984550 -0.406207 -0.000000 -0.798925 0.751355 0.118734 16.377300 -0.000001 -0.000001 1.727280 -2.914280 3.103530 6.456720 -0.000001 -0.000000 7.535710 -1.726600 -3.791880 12.994200 -0.242716 4.980390 -90.575100 1.732550 -71.633000 5.348090 -0.000007 -0.000001 -59.357300 36.055000 -18.339900 24.328600 0.000019 0.000005 7.551300 17.466200 -23.829300 22.291600 -0.000001 0.000005 -4.007460 5.478630 -5.692980 12.994500 -0.242716 -4.980390 87.765800 7.106680 -72.497400 -5.348130 -0.000001 -0.000004 -66.197100 38.514400 -10.586500 -24.328900 0.000322 -0.000009 2.854780 8.518130 -18.612600 -22.291500 -0.000108 -0.000004 8.508300 5.387200 -2.526010 -2.192480 -6.469440 -0.000000 -176.786000 -9.544780 -3.488360 39.081100 -0.000007 -0.000012 -0.062784 0.202588 17.218500 40.985400 -0.000006 -0.000013 -0.434428 3.813900 -62.449600 11.754300 -0.000000 0.000003 -0.000001 -0.000018 -16.578200 -2.192510 6.469440 -0.000001 179.418000 11.742300 179.086000 -39.081100 -0.002282 -0.040193 -0.051233 0.213741 14.320900 -40.985400 0.000008 0.000006 1.113530 6.491060 -62.329200 -11.754300 -0.000006 -0.000006 -0.006924 -0.079006 -19.789300
0.000000 0.000000 0.000000 0.000000 0.000000 -0.000000 -1.231430 92.990500 -1.606630 89.102400 -2.181850 1.438420 15.735700 0.000005 -0.000001 96.870700 86.465800 -96.768100 8.984550 -0.406207 -0.000000 -0.749186 0.837784 0.210492 16.377300 -0.000001 -0.000001 1.697720 -2.883680 2.868100 6.456720 -0.000001 -0.000000 7.328680 -1.952720 -3.716260 12.994200 -0.242716 4.980390 -90.515700 1.524110 -71.303500 5.348090 -0.000007 -0.000001 -55.391900 30.233100 -22.138700 24.328600 0.000019 0.000005 7.202570 16.982400 -23.396500 22.291600 -0.000001 0.000005 -3.938000 5.468690 -5.321510 12.994500 -0.242716 -4.980390 87.811800 6.966940 -72.515300 -5.348130 -0.000001 -0.000004 -66.543300 38.368100 -10.305400 -24.328900 0.000322 -0.000009 2.938140 8.694090 -18.760800 -22.291500 -0.000108 -0.000004 8.572070 5.382550 -2.378420 -2.192480 -6.469440 -0.000000 -176.663000 -9.485890 -3.472580 39.081100 -0.000007 -0.000012 -0.064341 0.207304 17.242800 40.985400 -0.000006 -0.000013 -0.482619 3.911760 -62.407200 11.754300 -0.000000 0.000003 -0.000001 -0.000013 -16.578000 -2.192510 6.469440 -0.000001 179.505000 11.923400 179.169000 -39.081100 -0.002282 -0.040193 -0.050577 0.212150 14.257400 -40.985400 0.000008 0.000006 1.181360 6.544790 -62.281800 -11.754300 -0.000006 -0.000006 -0.006574 -0.075960 -19.665000
0.000000 0.000000 0.000000 0.000000 0.000000 -0.000000 -1.329670 92.994700 -1.679840 89.096500 -2.092340 1.447460 15.735700 0.000005 -0.000001 97.595800 86.483900 -97.450900 8.984550 -0.406207 -0.000000 -0.796664 0.918522 0.296094 16.377300 -0.000001 -0.000001 1.740420 -2.773550 2.508100 6.456720 -0.000001 -0.000000 7.098420 -2.101600 -3.617230 12.994200 -0.242716 4.980390 -90.372100 1.085080 -71.071600 5.348090 -0.000007 -0.000001 -52.449700 21.123200 -25.882600 24.328600 0.000019 0.000005 6.708760 16.301200 -22.737000 22.291600 -0.000001 0.000005 -3.294380 5.462120 -5.078570 12.994500 -0.242716 -4.980390 87.862900 6.834050 -72.588200 -5.348130 -0.000001 -0.000004 -66.821200 38.302500 -10.063900 -24.328900 0.000322 -0.000009 2.948340 8.699470 -18.810800 -22.291500 -0.000108 -0.000004 8.495540 5.381120 -2.333660 -2.192480 -6.469440 -0.000000 -176.599000 -9.453890 -3.522690 39.081100 -0.000007 -0.000012 -0.063359 0.204229 17.235700 40.985400 -0.000006 -0.000013 -0.534848 3.966240 -62.335000 11.754300 -0.000000 0.000003 -0.000001 -0.000018 -16.578200 -2.192510 6.469440 -0.000001 179.572000 12.114800 179.142000 -39.081100 -0.002282 -0.040193 -0.049559 0.208183 14.254900 -40.985400 0.000008 0.000006 1.261850 6.622580 -62.256400 -11.754300 -0.000006 -0.000006 -0.006654 -0.076661 -19.693600
0.000000 0.000000 0.000000 0.000000 0.000000 -0.000000 -1.444220 93.005100 -1.749640 89.065900 -2.062990 1.418710 15.735700 0.000005 -0.000001 98.560400 86.502200 -98.378900 8.984550 -0.406207 -0.000000 -0.849945 1.027440 0.370494 16.377300 -0.000001 -0.000001 1.677130 -2.669430 2.323790 6.456720 -0.000001 -0.000000 6.808140 -2.144530 -3.725760 12.994200 -0.242716 4.980390 -90.234700 0.673306 -70.781700 5.348090 -0.000007 -0.000001 -49.460400 10.963600 -30.423300 24.328600 0.000019 0.000005 6.508410 16.051300 -22.421200 22.291600 -0.000001 0.000005 -2.875390 5.452980 -4.746520 12.994500 -0.242716 -4.980390 87.869600 6.823250 -72.614000 -5.348130 -0.000001 -0.000004 -66.851300 38.497900 -9.959850 -24.328900 0.000322 -0.000009 2.957700 8.712380 -18.840600 -22.291500 -0.000108 -0.000004 8.546240 5.384530 -2.441300 -2.192480 -6.469440 -0.000000 -176.476000 -9.513580 -3.566070 39.081100 -0.000007 -0.000012 -0.064342 0.208220 17.171500 40.985400 -0.000006 -0.000013 -0.608076 4.105080 -62.241000 11.754300 -0.000000 0.000003 -0.000001 -0.000015 -16.578100 -2.192510 6.469440 -0.000001 179.690000 12.376500 179.114000 -39.081100 -0.002282 -0.040193 -0.048359 0.204861 14.161300 -40.985400 0.000008 0.000006 1.380290 6.811770 -62.183900 -11.754300 -0.000006 -0.000006 -0.006802 -0.077955 -19.746500
0.000000 0.000000 0.000000 0.000000 0.000000 -0.000000 -1.552450 93.026200 -1.804500 89.059600 -2.099590 1.326560 15.735700 0.000005 -0.000001 98.944000 86.551000 -98.719300 8.984550 -0.406207 -0.000000 -0.954031 1.055110 0.458010 16.377300 -0.000001 -0.000001 1.571360 -2.556750 2.080620 6.456720 -0.000001 -0.000000 6.325200 -1.988450 -3.848210 12.994200 -0.242716 4.980390 -89.952700 -0.136082 -70.805900 5.348090 -0.000007 -0.000001 -46.780800 0.930432 -35.084300 24.328600 0.000019 0.000005 6.227030 15.572300 -22.118700 22.291600 -0.000001 0.000005 -1.535460 5.442190 -4.364320 12.994500 -0.242716 -4.980390 87.851400 6.834490 -72.501100 -5.348130 -0.000001 -0.000004 -66.641300 38.764500 -10.077000 -24.328900 0.000322 -0.000009 3.038960 8.909960 -18.926500 -22.291500 -0.000108 -0.000004 8.507300 5.382540 -2.378430 -2.192480 -6.469440 -0.000000 -176.417000 -9.530020 -3.596110 39.081100 -0.000007 -0.000012 -0.063549 0.208158 16.977000 40.985400 -0.000006 -0.000013 -0.690886 4.083220 -62.095900 11.754300 -0.000000 0.000003 -0.000001 -0.000019 -16.578200 -2.192510 6.469440 -0.000001 179.773000 12.666400 179.088000 -39.081100 -0.002282 -0.040193 -0.046513 0.200512 13.960200 -40.985400 0.000008 0.000006 1.485980 7.090280 -62.067600 -11.754300 -0.000006 -0.000006 -0.006961 -0.079329 -19.802500
